<mxfile host="Electron" agent="Mozilla/5.0 (Windows NT 10.0; Win64; x64) AppleWebKit/537.36 (KHTML, like Gecko) draw.io/27.0.9 Chrome/134.0.6998.205 Electron/35.4.0 Safari/537.36" version="27.0.9">
  <diagram name="Σελίδα-1" id="8AF6oDcgmJQcUUftELe5">
    <mxGraphModel dx="1358" dy="809" grid="1" gridSize="10" guides="1" tooltips="1" connect="1" arrows="1" fold="1" page="1" pageScale="1" pageWidth="827" pageHeight="1169" math="0" shadow="0">
      <root>
        <mxCell id="0" />
        <mxCell id="1" parent="0" />
        <mxCell id="KfaM7NzPQtq9M0Lae5Ph-1" value="" style="shape=hexagon;perimeter=hexagonPerimeter2;whiteSpace=wrap;html=1;fixedSize=1;fillColor=#647687;fontColor=#ffffff;strokeColor=#000000;gradientColor=none;gradientDirection=north;rounded=1;shadow=1;" parent="1" vertex="1">
          <mxGeometry x="60" y="250.5" width="170" height="118.5" as="geometry" />
        </mxCell>
        <mxCell id="KfaM7NzPQtq9M0Lae5Ph-2" value="Users" style="text;html=1;align=center;verticalAlign=middle;whiteSpace=wrap;rounded=0;" parent="1" vertex="1">
          <mxGeometry x="115" y="251.5" width="60" height="30" as="geometry" />
        </mxCell>
        <mxCell id="KfaM7NzPQtq9M0Lae5Ph-8" value="&lt;font style=&quot;color: rgb(228, 228, 228);&quot;&gt;id SERIAL&lt;/font&gt; PRIMARY KEY&lt;div&gt;&lt;br&gt;&lt;font color=&quot;#ffffff&quot;&gt;username VARCHAR(20)&lt;/font&gt;&lt;/div&gt;&lt;div&gt;&lt;font style=&quot;color: rgb(255, 255, 255);&quot;&gt;&lt;br&gt;email VARCHAR(220)&lt;/font&gt;&lt;/div&gt;&lt;div&gt;&lt;font style=&quot;color: rgb(255, 255, 255);&quot;&gt;&lt;br&gt;password_hash VARCHAR(100)&lt;/font&gt;&lt;/div&gt;" style="text;align=center;verticalAlign=middle;rounded=0;fontSize=8;fontColor=#27FF4B;spacingTop=0;spacing=4;spacingRight=0;spacingBottom=0;flipH=1;flipV=1;whiteSpace=wrap;html=1;spacingLeft=0;horizontal=1;textShadow=0;fontFamily=Helvetica;" parent="1" vertex="1">
          <mxGeometry x="70" y="291.5" width="150" height="59" as="geometry" />
        </mxCell>
        <mxCell id="KfaM7NzPQtq9M0Lae5Ph-23" value="" style="shape=hexagon;perimeter=hexagonPerimeter2;whiteSpace=wrap;html=1;fixedSize=1;fillColor=#647687;fontColor=#ffffff;strokeColor=#000000;gradientColor=none;gradientDirection=north;rounded=1;shadow=1;" parent="1" vertex="1">
          <mxGeometry x="517" y="220" width="170" height="170" as="geometry" />
        </mxCell>
        <mxCell id="KfaM7NzPQtq9M0Lae5Ph-24" value="Recipes" style="text;html=1;align=center;verticalAlign=middle;whiteSpace=wrap;rounded=0;" parent="1" vertex="1">
          <mxGeometry x="572" y="221" width="60" height="30" as="geometry" />
        </mxCell>
        <mxCell id="KfaM7NzPQtq9M0Lae5Ph-25" value="&lt;font style=&quot;color: rgb(228, 228, 228);&quot;&gt;id SERIAL&lt;/font&gt; PRIMARY KEY&lt;div&gt;&lt;br&gt;&lt;div&gt;&lt;font style=&quot;color: rgb(246, 246, 246);&quot;&gt;name VARCHAR(100)&lt;/font&gt;&lt;/div&gt;&lt;div&gt;&lt;font style=&quot;color: rgb(255, 255, 255);&quot;&gt;&lt;br&gt;description TEXT&lt;/font&gt;&lt;/div&gt;&lt;div&gt;&lt;font style=&quot;color: rgb(255, 255, 255);&quot;&gt;&lt;br&gt;&lt;/font&gt;&lt;/div&gt;&lt;div&gt;&lt;font style=&quot;color: rgb(255, 255, 255);&quot;&gt;cook_time INTEGER&lt;/font&gt;&lt;/div&gt;&lt;div&gt;&lt;font style=&quot;color: rgb(255, 255, 255);&quot;&gt;&lt;br&gt;&lt;/font&gt;&lt;/div&gt;&lt;div&gt;&lt;font style=&quot;color: rgb(255, 255, 255);&quot;&gt;difficulty INTEGER&lt;/font&gt;&lt;/div&gt;&lt;div&gt;&lt;font style=&quot;color: rgb(255, 255, 255);&quot;&gt;&lt;br&gt;&lt;/font&gt;&lt;/div&gt;&lt;div&gt;&lt;font style=&quot;color: rgb(255, 255, 255);&quot;&gt;cost_estimate NUMERIC(5,2)&lt;/font&gt;&lt;/div&gt;&lt;div&gt;&lt;font style=&quot;color: rgb(255, 255, 255);&quot;&gt;&lt;br&gt;&lt;/font&gt;&lt;/div&gt;&lt;div&gt;&lt;font style=&quot;color: rgb(246, 246, 246);&quot;&gt;user_id&lt;/font&gt; &lt;font style=&quot;color: rgb(255, 155, 6);&quot;&gt;FOREIGN KEY&lt;/font&gt;&lt;/div&gt;&lt;/div&gt;" style="text;align=center;verticalAlign=middle;rounded=0;fontSize=8;fontColor=#27FF4B;spacingTop=0;spacing=4;spacingRight=0;spacingBottom=0;flipH=1;flipV=1;whiteSpace=wrap;html=1;spacingLeft=0;horizontal=1;textShadow=0;fontFamily=Helvetica;" parent="1" vertex="1">
          <mxGeometry x="527" y="261" width="150" height="109" as="geometry" />
        </mxCell>
        <mxCell id="KfaM7NzPQtq9M0Lae5Ph-28" value="" style="shape=hexagon;perimeter=hexagonPerimeter2;whiteSpace=wrap;html=1;fixedSize=1;fillColor=#647687;fontColor=#ffffff;strokeColor=#000000;gradientColor=none;gradientDirection=north;rounded=1;shadow=1;" parent="1" vertex="1">
          <mxGeometry x="355" y="457" width="170" height="110" as="geometry" />
        </mxCell>
        <mxCell id="KfaM7NzPQtq9M0Lae5Ph-29" value="recipe_instructions" style="text;html=1;align=center;verticalAlign=middle;whiteSpace=wrap;rounded=0;" parent="1" vertex="1">
          <mxGeometry x="414" y="460" width="60" height="30" as="geometry" />
        </mxCell>
        <mxCell id="KfaM7NzPQtq9M0Lae5Ph-30" value="&lt;font style=&quot;color: rgb(228, 228, 228);&quot;&gt;id SERIAL&lt;/font&gt; PRIMARY KEY&lt;div&gt;&lt;br&gt;&lt;div&gt;&lt;font style=&quot;color: rgb(246, 246, 246);&quot;&gt;instructions TEXT&lt;/font&gt;&lt;/div&gt;&lt;div&gt;&lt;font style=&quot;color: rgb(255, 255, 255);&quot;&gt;&lt;br&gt;step_number INTEGER&lt;/font&gt;&lt;/div&gt;&lt;div&gt;&lt;font style=&quot;color: rgb(255, 255, 255);&quot;&gt;&lt;br&gt;&lt;/font&gt;&lt;/div&gt;&lt;div&gt;&lt;span style=&quot;background-color: transparent;&quot;&gt;&lt;font color=&quot;#ffffff&quot;&gt;recipe_id&lt;/font&gt;&lt;/span&gt;&lt;span style=&quot;background-color: transparent; color: light-dark(rgb(39, 255, 75), rgb(0, 119, 0));&quot;&gt;&amp;nbsp;&lt;/span&gt;&lt;font style=&quot;background-color: transparent; color: rgb(255, 155, 6);&quot;&gt;FOREIGN KEY&lt;/font&gt;&lt;/div&gt;&lt;/div&gt;" style="text;align=center;verticalAlign=middle;rounded=0;fontSize=8;fontColor=#27FF4B;spacingTop=0;spacing=4;spacingRight=0;spacingBottom=0;flipH=1;flipV=1;whiteSpace=wrap;html=1;spacingLeft=0;horizontal=1;textShadow=0;fontFamily=Helvetica;" parent="1" vertex="1">
          <mxGeometry x="367" y="469" width="150" height="109" as="geometry" />
        </mxCell>
        <mxCell id="KfaM7NzPQtq9M0Lae5Ph-35" value="" style="endArrow=classic;html=1;rounded=0;" parent="1" edge="1">
          <mxGeometry width="50" height="50" relative="1" as="geometry">
            <mxPoint x="197" y="290" as="sourcePoint" />
            <mxPoint x="556" y="373" as="targetPoint" />
            <Array as="points">
              <mxPoint x="340" y="319" />
              <mxPoint x="450" y="349" />
            </Array>
          </mxGeometry>
        </mxCell>
        <mxCell id="KfaM7NzPQtq9M0Lae5Ph-39" value="" style="shape=hexagon;perimeter=hexagonPerimeter2;whiteSpace=wrap;html=1;fixedSize=1;fillColor=#647687;fontColor=#ffffff;strokeColor=#000000;gradientColor=none;gradientDirection=north;rounded=1;shadow=1;" parent="1" vertex="1">
          <mxGeometry x="677" y="454.5" width="170" height="110" as="geometry" />
        </mxCell>
        <mxCell id="KfaM7NzPQtq9M0Lae5Ph-40" value="recipe_ingredients" style="text;html=1;align=center;verticalAlign=middle;whiteSpace=wrap;rounded=0;" parent="1" vertex="1">
          <mxGeometry x="732" y="454.5" width="60" height="30" as="geometry" />
        </mxCell>
        <mxCell id="KfaM7NzPQtq9M0Lae5Ph-41" value="&lt;font style=&quot;color: rgb(228, 228, 228);&quot;&gt;id SERIAL&lt;/font&gt; PRIMARY KEY&lt;div&gt;&lt;br&gt;&lt;div&gt;&lt;font style=&quot;color: rgb(246, 246, 246);&quot;&gt;ingredient_name TEXT&lt;/font&gt;&lt;/div&gt;&lt;div&gt;&lt;font style=&quot;color: rgb(255, 255, 255);&quot;&gt;&lt;br&gt;quantity TEXT&lt;/font&gt;&lt;/div&gt;&lt;div&gt;&lt;font style=&quot;color: rgb(255, 255, 255);&quot;&gt;&lt;br&gt;&lt;/font&gt;&lt;/div&gt;&lt;div&gt;&lt;span style=&quot;background-color: transparent;&quot;&gt;&lt;font color=&quot;#ffffff&quot;&gt;recipe_id&lt;/font&gt;&lt;/span&gt;&lt;span style=&quot;background-color: transparent; color: light-dark(rgb(39, 255, 75), rgb(0, 119, 0));&quot;&gt;&amp;nbsp;&lt;/span&gt;&lt;font style=&quot;background-color: transparent; color: rgb(255, 155, 6);&quot;&gt;FOREIGN KEY&lt;/font&gt;&lt;/div&gt;&lt;/div&gt;" style="text;align=center;verticalAlign=middle;rounded=0;fontSize=8;fontColor=#27FF4B;spacingTop=0;spacing=4;spacingRight=0;spacingBottom=0;flipH=1;flipV=1;whiteSpace=wrap;html=1;spacingLeft=0;horizontal=1;textShadow=0;fontFamily=Helvetica;" parent="1" vertex="1">
          <mxGeometry x="687" y="464.5" width="150" height="109" as="geometry" />
        </mxCell>
        <mxCell id="KfaM7NzPQtq9M0Lae5Ph-43" value="" style="shape=hexagon;perimeter=hexagonPerimeter2;whiteSpace=wrap;html=1;fixedSize=1;fillColor=#647687;fontColor=#ffffff;strokeColor=#000000;gradientColor=none;gradientDirection=north;rounded=1;shadow=1;" parent="1" vertex="1">
          <mxGeometry x="60" y="447" width="170" height="152" as="geometry" />
        </mxCell>
        <mxCell id="KfaM7NzPQtq9M0Lae5Ph-44" value="user_recipe_progress" style="text;html=1;align=center;verticalAlign=middle;whiteSpace=wrap;rounded=0;" parent="1" vertex="1">
          <mxGeometry x="115" y="447" width="60" height="30" as="geometry" />
        </mxCell>
        <mxCell id="KfaM7NzPQtq9M0Lae5Ph-45" value="&lt;font style=&quot;color: rgb(228, 228, 228);&quot;&gt;id SERIAL&lt;/font&gt; PRIMARY KEY&lt;div&gt;&lt;br&gt;&lt;font color=&quot;#ffffff&quot;&gt;user_id &lt;/font&gt;&lt;font style=&quot;color: rgb(255, 155, 6);&quot;&gt;FOREIGN KEY&lt;/font&gt;&lt;/div&gt;&lt;div&gt;&lt;font style=&quot;color: rgb(255, 255, 255);&quot;&gt;&lt;br&gt;recipe_id &lt;/font&gt;&lt;font style=&quot;color: rgb(255, 155, 6);&quot;&gt;FOREIGN KEY&lt;/font&gt;&lt;/div&gt;&lt;div&gt;&lt;font style=&quot;color: rgb(255, 255, 255);&quot;&gt;&lt;br&gt;rank INTEGER&lt;/font&gt;&lt;/div&gt;&lt;div&gt;&lt;font style=&quot;color: rgb(255, 255, 255);&quot;&gt;&lt;br&gt;&lt;/font&gt;&lt;/div&gt;&lt;div&gt;&lt;font style=&quot;color: rgb(255, 255, 255);&quot;&gt;exp INTEGER&lt;/font&gt;&lt;/div&gt;&lt;div&gt;&lt;font style=&quot;color: rgb(255, 255, 255);&quot;&gt;&lt;br&gt;&lt;/font&gt;&lt;/div&gt;&lt;div&gt;&lt;font style=&quot;color: rgb(255, 255, 255);&quot;&gt;times_cooked INTEGER&lt;/font&gt;&lt;/div&gt;" style="text;align=center;verticalAlign=middle;rounded=0;fontSize=8;fontColor=#27FF4B;spacingTop=0;spacing=4;spacingRight=0;spacingBottom=0;flipH=1;flipV=1;whiteSpace=wrap;html=1;spacingLeft=0;horizontal=1;textShadow=0;fontFamily=Helvetica;" parent="1" vertex="1">
          <mxGeometry x="70" y="505.5" width="150" height="59" as="geometry" />
        </mxCell>
        <mxCell id="KfaM7NzPQtq9M0Lae5Ph-47" value="" style="endArrow=classic;html=1;rounded=0;" parent="1" edge="1">
          <mxGeometry width="50" height="50" relative="1" as="geometry">
            <mxPoint x="550" y="258" as="sourcePoint" />
            <mxPoint x="491" y="552.952380952381" as="targetPoint" />
          </mxGeometry>
        </mxCell>
        <mxCell id="KfaM7NzPQtq9M0Lae5Ph-49" value="" style="endArrow=classic;html=1;rounded=0;" parent="1" edge="1">
          <mxGeometry width="50" height="50" relative="1" as="geometry">
            <mxPoint x="655" y="254.5" as="sourcePoint" />
            <mxPoint x="714" y="549.452380952381" as="targetPoint" />
          </mxGeometry>
        </mxCell>
        <mxCell id="KfaM7NzPQtq9M0Lae5Ph-51" value="" style="endArrow=classic;html=1;rounded=0;" parent="1" edge="1">
          <mxGeometry width="50" height="50" relative="1" as="geometry">
            <mxPoint x="550" y="257" as="sourcePoint" />
            <mxPoint x="193" y="522" as="targetPoint" />
          </mxGeometry>
        </mxCell>
        <mxCell id="KfaM7NzPQtq9M0Lae5Ph-53" value="" style="endArrow=classic;html=1;rounded=0;" parent="1" edge="1">
          <mxGeometry width="50" height="50" relative="1" as="geometry">
            <mxPoint x="198" y="290" as="sourcePoint" />
            <mxPoint x="190" y="503.95238095238096" as="targetPoint" />
          </mxGeometry>
        </mxCell>
        <mxCell id="v2PRVIUzCw1DyUCOsPX0-2" value="&lt;font style=&quot;font-size: 50px;&quot;&gt;Data&lt;/font&gt;" style="text;html=1;align=center;verticalAlign=middle;whiteSpace=wrap;rounded=0;strokeWidth=3;" vertex="1" parent="1">
          <mxGeometry x="345" y="90" width="180" height="90" as="geometry" />
        </mxCell>
        <mxCell id="v2PRVIUzCw1DyUCOsPX0-3" value="&lt;font style=&quot;font-size: 50px;&quot;&gt;Component Tree&lt;/font&gt;" style="text;html=1;align=center;verticalAlign=middle;whiteSpace=wrap;rounded=0;strokeWidth=3;" vertex="1" parent="1">
          <mxGeometry x="1130" y="90" width="390" height="90" as="geometry" />
        </mxCell>
        <mxCell id="v2PRVIUzCw1DyUCOsPX0-7" value="" style="edgeStyle=orthogonalEdgeStyle;rounded=0;orthogonalLoop=1;jettySize=auto;html=1;" edge="1" parent="1" source="v2PRVIUzCw1DyUCOsPX0-5" target="v2PRVIUzCw1DyUCOsPX0-6">
          <mxGeometry relative="1" as="geometry" />
        </mxCell>
        <mxCell id="v2PRVIUzCw1DyUCOsPX0-5" value="main.jsx" style="shape=note;whiteSpace=wrap;html=1;backgroundOutline=1;darkOpacity=0.05;strokeColor=#1FF0FF;" vertex="1" parent="1">
          <mxGeometry x="1191.75" y="251" width="66.8" height="83.5" as="geometry" />
        </mxCell>
        <mxCell id="v2PRVIUzCw1DyUCOsPX0-55" value="" style="edgeStyle=orthogonalEdgeStyle;rounded=0;orthogonalLoop=1;jettySize=auto;html=1;" edge="1" parent="1" source="v2PRVIUzCw1DyUCOsPX0-6" target="v2PRVIUzCw1DyUCOsPX0-27">
          <mxGeometry relative="1" as="geometry" />
        </mxCell>
        <mxCell id="v2PRVIUzCw1DyUCOsPX0-6" value="App.jsx" style="shape=note;whiteSpace=wrap;html=1;backgroundOutline=1;darkOpacity=0.05;strokeColor=#1FF0FF;" vertex="1" parent="1">
          <mxGeometry x="1191.75" y="396.5" width="66.8" height="83.5" as="geometry" />
        </mxCell>
        <mxCell id="v2PRVIUzCw1DyUCOsPX0-23" value="" style="edgeStyle=orthogonalEdgeStyle;rounded=0;orthogonalLoop=1;jettySize=auto;html=1;" edge="1" parent="1" source="v2PRVIUzCw1DyUCOsPX0-21" target="v2PRVIUzCw1DyUCOsPX0-5">
          <mxGeometry relative="1" as="geometry" />
        </mxCell>
        <mxCell id="v2PRVIUzCw1DyUCOsPX0-26" value="" style="edgeStyle=orthogonalEdgeStyle;rounded=0;orthogonalLoop=1;jettySize=auto;html=1;" edge="1" parent="1" source="v2PRVIUzCw1DyUCOsPX0-21" target="v2PRVIUzCw1DyUCOsPX0-25">
          <mxGeometry relative="1" as="geometry" />
        </mxCell>
        <mxCell id="v2PRVIUzCw1DyUCOsPX0-21" value="src" style="shape=card;whiteSpace=wrap;html=1;strokeColor=#15FF3C;" vertex="1" parent="1">
          <mxGeometry x="1281.75" y="170" width="48" height="60" as="geometry" />
        </mxCell>
        <mxCell id="v2PRVIUzCw1DyUCOsPX0-28" value="" style="edgeStyle=orthogonalEdgeStyle;rounded=0;orthogonalLoop=1;jettySize=auto;html=1;entryX=0;entryY=0;entryDx=90.2;entryDy=58.44;entryPerimeter=0;" edge="1" parent="1" source="v2PRVIUzCw1DyUCOsPX0-25" target="v2PRVIUzCw1DyUCOsPX0-27">
          <mxGeometry relative="1" as="geometry" />
        </mxCell>
        <mxCell id="v2PRVIUzCw1DyUCOsPX0-25" value="routes" style="shape=card;whiteSpace=wrap;html=1;strokeColor=#1DFF3B;" vertex="1" parent="1">
          <mxGeometry x="1358.75" y="251" width="48" height="60" as="geometry" />
        </mxCell>
        <mxCell id="v2PRVIUzCw1DyUCOsPX0-33" value="" style="edgeStyle=orthogonalEdgeStyle;rounded=0;orthogonalLoop=1;jettySize=auto;html=1;" edge="1" parent="1" target="v2PRVIUzCw1DyUCOsPX0-32">
          <mxGeometry relative="1" as="geometry">
            <mxPoint x="1247.4" y="740" as="sourcePoint" />
          </mxGeometry>
        </mxCell>
        <mxCell id="v2PRVIUzCw1DyUCOsPX0-56" value="" style="edgeStyle=orthogonalEdgeStyle;rounded=0;orthogonalLoop=1;jettySize=auto;html=1;" edge="1" parent="1" source="v2PRVIUzCw1DyUCOsPX0-27" target="v2PRVIUzCw1DyUCOsPX0-42">
          <mxGeometry relative="1" as="geometry" />
        </mxCell>
        <mxCell id="v2PRVIUzCw1DyUCOsPX0-27" value="AppRoutes.jsx" style="shape=note;whiteSpace=wrap;html=1;backgroundOutline=1;darkOpacity=0.05;strokeColor=#1DFF3B;" vertex="1" parent="1">
          <mxGeometry x="1180.05" y="563.5" width="90.2" height="86.88" as="geometry" />
        </mxCell>
        <mxCell id="v2PRVIUzCw1DyUCOsPX0-38" value="" style="edgeStyle=orthogonalEdgeStyle;rounded=0;orthogonalLoop=1;jettySize=auto;html=1;exitX=0.5;exitY=1;exitDx=0;exitDy=0;exitPerimeter=0;entryX=0;entryY=0.5;entryDx=0;entryDy=0;entryPerimeter=0;" edge="1" parent="1" source="v2PRVIUzCw1DyUCOsPX0-30" target="v2PRVIUzCw1DyUCOsPX0-34">
          <mxGeometry relative="1" as="geometry" />
        </mxCell>
        <mxCell id="v2PRVIUzCw1DyUCOsPX0-40" value="" style="edgeStyle=orthogonalEdgeStyle;rounded=0;orthogonalLoop=1;jettySize=auto;html=1;exitX=0.008;exitY=0.79;exitDx=0;exitDy=0;exitPerimeter=0;" edge="1" parent="1" source="v2PRVIUzCw1DyUCOsPX0-30" target="v2PRVIUzCw1DyUCOsPX0-39">
          <mxGeometry relative="1" as="geometry" />
        </mxCell>
        <mxCell id="v2PRVIUzCw1DyUCOsPX0-46" value="" style="edgeStyle=orthogonalEdgeStyle;rounded=0;orthogonalLoop=1;jettySize=auto;html=1;" edge="1" parent="1" source="v2PRVIUzCw1DyUCOsPX0-30" target="v2PRVIUzCw1DyUCOsPX0-45">
          <mxGeometry relative="1" as="geometry" />
        </mxCell>
        <mxCell id="v2PRVIUzCw1DyUCOsPX0-30" value="Home.jsx" style="shape=note;whiteSpace=wrap;html=1;backgroundOutline=1;darkOpacity=0.05;strokeColor=#FFA710;" vertex="1" parent="1">
          <mxGeometry x="1060" y="807.1899999999999" width="59.3" height="74.13" as="geometry" />
        </mxCell>
        <mxCell id="v2PRVIUzCw1DyUCOsPX0-36" value="" style="edgeStyle=orthogonalEdgeStyle;rounded=0;orthogonalLoop=1;jettySize=auto;html=1;entryX=1.011;entryY=0.526;entryDx=0;entryDy=0;entryPerimeter=0;exitX=0.5;exitY=1;exitDx=0;exitDy=0;exitPerimeter=0;" edge="1" parent="1" source="v2PRVIUzCw1DyUCOsPX0-32" target="v2PRVIUzCw1DyUCOsPX0-34">
          <mxGeometry relative="1" as="geometry" />
        </mxCell>
        <mxCell id="v2PRVIUzCw1DyUCOsPX0-32" value="Recipe" style="shape=note;whiteSpace=wrap;html=1;backgroundOutline=1;darkOpacity=0.05;fillColor=none;strokeColor=#FFA710;" vertex="1" parent="1">
          <mxGeometry x="1351.25" y="807.19" width="59.5" height="74.37" as="geometry" />
        </mxCell>
        <mxCell id="v2PRVIUzCw1DyUCOsPX0-34" value="Header.jsx" style="shape=note;whiteSpace=wrap;html=1;backgroundOutline=1;darkOpacity=0.05;strokeColor=#1FF0FF;" vertex="1" parent="1">
          <mxGeometry x="1190" y="892.93" width="69" height="74.13" as="geometry" />
        </mxCell>
        <mxCell id="v2PRVIUzCw1DyUCOsPX0-39" value="UserBox.jsx" style="shape=note;whiteSpace=wrap;html=1;backgroundOutline=1;darkOpacity=0.05;strokeColor=#1FF0FF;" vertex="1" parent="1">
          <mxGeometry x="717.0000000000001" y="903.12" width="79.3" height="74.13" as="geometry" />
        </mxCell>
        <mxCell id="v2PRVIUzCw1DyUCOsPX0-42" value="pages" style="shape=card;whiteSpace=wrap;html=1;strokeColor=#FFA710;" vertex="1" parent="1">
          <mxGeometry x="1200.5" y="710" width="48" height="60" as="geometry" />
        </mxCell>
        <mxCell id="v2PRVIUzCw1DyUCOsPX0-44" style="edgeStyle=orthogonalEdgeStyle;rounded=0;orthogonalLoop=1;jettySize=auto;html=1;entryX=0;entryY=0;entryDx=14.650000000000002;entryDy=0;entryPerimeter=0;" edge="1" parent="1" target="v2PRVIUzCw1DyUCOsPX0-30">
          <mxGeometry relative="1" as="geometry">
            <mxPoint x="1199.4" y="740" as="sourcePoint" />
          </mxGeometry>
        </mxCell>
        <mxCell id="v2PRVIUzCw1DyUCOsPX0-48" value="" style="edgeStyle=orthogonalEdgeStyle;rounded=0;orthogonalLoop=1;jettySize=auto;html=1;exitX=0;exitY=0;exitDx=14.650000000000002;exitDy=0;exitPerimeter=0;entryX=0;entryY=0;entryDx=14.650000000000002;entryDy=0;entryPerimeter=0;" edge="1" parent="1" source="v2PRVIUzCw1DyUCOsPX0-45" target="v2PRVIUzCw1DyUCOsPX0-47">
          <mxGeometry relative="1" as="geometry">
            <mxPoint x="287" y="930.19" as="targetPoint" />
          </mxGeometry>
        </mxCell>
        <mxCell id="v2PRVIUzCw1DyUCOsPX0-52" value="" style="edgeStyle=orthogonalEdgeStyle;rounded=0;orthogonalLoop=1;jettySize=auto;html=1;" edge="1" parent="1" source="v2PRVIUzCw1DyUCOsPX0-45" target="v2PRVIUzCw1DyUCOsPX0-51">
          <mxGeometry relative="1" as="geometry" />
        </mxCell>
        <mxCell id="v2PRVIUzCw1DyUCOsPX0-45" value="Layout.jsx" style="shape=note;whiteSpace=wrap;html=1;backgroundOutline=1;darkOpacity=0.05;strokeColor=#1FF0FF;" vertex="1" parent="1">
          <mxGeometry x="637.35" y="807.62" width="59.3" height="74.13" as="geometry" />
        </mxCell>
        <mxCell id="v2PRVIUzCw1DyUCOsPX0-47" value="Rank.jsx" style="shape=note;whiteSpace=wrap;html=1;backgroundOutline=1;darkOpacity=0.05;strokeColor=#1FF0FF;" vertex="1" parent="1">
          <mxGeometry x="261.7" y="940.1900000000003" width="59.3" height="74.13" as="geometry" />
        </mxCell>
        <mxCell id="v2PRVIUzCw1DyUCOsPX0-49" value="ViewRecipe.jsx" style="shape=note;whiteSpace=wrap;html=1;backgroundOutline=1;darkOpacity=0.05;strokeColor=#1FF0FF;" vertex="1" parent="1">
          <mxGeometry x="526.9999999999998" y="940.19" width="93" height="74.13" as="geometry" />
        </mxCell>
        <mxCell id="v2PRVIUzCw1DyUCOsPX0-51" value="Bar.jsx" style="shape=note;whiteSpace=wrap;html=1;backgroundOutline=1;darkOpacity=0.05;strokeColor=#1FF0FF;" vertex="1" parent="1">
          <mxGeometry x="386.9999999999999" y="940.19" width="59.3" height="74.13" as="geometry" />
        </mxCell>
        <mxCell id="v2PRVIUzCw1DyUCOsPX0-53" style="edgeStyle=orthogonalEdgeStyle;rounded=0;orthogonalLoop=1;jettySize=auto;html=1;entryX=0.399;entryY=0;entryDx=0;entryDy=0;entryPerimeter=0;exitX=0.5;exitY=1;exitDx=0;exitDy=0;exitPerimeter=0;" edge="1" parent="1" source="v2PRVIUzCw1DyUCOsPX0-45" target="v2PRVIUzCw1DyUCOsPX0-49">
          <mxGeometry relative="1" as="geometry" />
        </mxCell>
        <mxCell id="v2PRVIUzCw1DyUCOsPX0-60" value="" style="edgeStyle=orthogonalEdgeStyle;rounded=0;orthogonalLoop=1;jettySize=auto;html=1;" edge="1" parent="1" source="v2PRVIUzCw1DyUCOsPX0-59" target="v2PRVIUzCw1DyUCOsPX0-6">
          <mxGeometry relative="1" as="geometry" />
        </mxCell>
        <mxCell id="v2PRVIUzCw1DyUCOsPX0-59" value="App.css" style="ellipse;whiteSpace=wrap;html=1;aspect=fixed;strokeColor=#A724FF;" vertex="1" parent="1">
          <mxGeometry x="1081.75" y="398.25" width="80" height="80" as="geometry" />
        </mxCell>
        <mxCell id="v2PRVIUzCw1DyUCOsPX0-62" value="" style="edgeStyle=orthogonalEdgeStyle;rounded=0;orthogonalLoop=1;jettySize=auto;html=1;" edge="1" parent="1" source="v2PRVIUzCw1DyUCOsPX0-61" target="v2PRVIUzCw1DyUCOsPX0-34">
          <mxGeometry relative="1" as="geometry" />
        </mxCell>
        <mxCell id="v2PRVIUzCw1DyUCOsPX0-61" value="Header.css" style="ellipse;whiteSpace=wrap;html=1;aspect=fixed;strokeColor=#A724FF;" vertex="1" parent="1">
          <mxGeometry x="1070" y="950" width="80" height="80" as="geometry" />
        </mxCell>
        <mxCell id="v2PRVIUzCw1DyUCOsPX0-64" value="" style="edgeStyle=orthogonalEdgeStyle;rounded=0;orthogonalLoop=1;jettySize=auto;html=1;" edge="1" parent="1" source="v2PRVIUzCw1DyUCOsPX0-63" target="v2PRVIUzCw1DyUCOsPX0-45">
          <mxGeometry relative="1" as="geometry" />
        </mxCell>
        <mxCell id="v2PRVIUzCw1DyUCOsPX0-63" value="Layout.css" style="ellipse;whiteSpace=wrap;html=1;aspect=fixed;strokeColor=#A724FF;" vertex="1" parent="1">
          <mxGeometry x="627" y="680.19" width="80" height="80" as="geometry" />
        </mxCell>
        <mxCell id="v2PRVIUzCw1DyUCOsPX0-67" value="" style="edgeStyle=orthogonalEdgeStyle;rounded=0;orthogonalLoop=1;jettySize=auto;html=1;" edge="1" parent="1" target="v2PRVIUzCw1DyUCOsPX0-39">
          <mxGeometry relative="1" as="geometry">
            <mxPoint x="827.00000125" y="940.19" as="sourcePoint" />
          </mxGeometry>
        </mxCell>
        <mxCell id="v2PRVIUzCw1DyUCOsPX0-65" value="UserBox.css" style="ellipse;whiteSpace=wrap;html=1;aspect=fixed;strokeColor=#A724FF;" vertex="1" parent="1">
          <mxGeometry x="827" y="900.1800000000001" width="80" height="80" as="geometry" />
        </mxCell>
        <mxCell id="v2PRVIUzCw1DyUCOsPX0-69" value="" style="edgeStyle=orthogonalEdgeStyle;rounded=0;orthogonalLoop=1;jettySize=auto;html=1;entryX=0;entryY=0.5;entryDx=0;entryDy=0;entryPerimeter=0;" edge="1" parent="1" source="v2PRVIUzCw1DyUCOsPX0-68" target="v2PRVIUzCw1DyUCOsPX0-47">
          <mxGeometry relative="1" as="geometry" />
        </mxCell>
        <mxCell id="v2PRVIUzCw1DyUCOsPX0-68" value="Rank.css" style="ellipse;whiteSpace=wrap;html=1;aspect=fixed;strokeColor=#A724FF;" vertex="1" parent="1">
          <mxGeometry x="157" y="680.19" width="80" height="80" as="geometry" />
        </mxCell>
        <mxCell id="v2PRVIUzCw1DyUCOsPX0-70" value="Bar,css" style="ellipse;whiteSpace=wrap;html=1;aspect=fixed;strokeColor=#A724FF;" vertex="1" parent="1">
          <mxGeometry x="284" y="680.1900000000002" width="80" height="80" as="geometry" />
        </mxCell>
        <mxCell id="v2PRVIUzCw1DyUCOsPX0-72" style="edgeStyle=orthogonalEdgeStyle;rounded=0;orthogonalLoop=1;jettySize=auto;html=1;entryX=0;entryY=0.5;entryDx=0;entryDy=0;entryPerimeter=0;" edge="1" parent="1" source="v2PRVIUzCw1DyUCOsPX0-70" target="v2PRVIUzCw1DyUCOsPX0-51">
          <mxGeometry relative="1" as="geometry" />
        </mxCell>
        <mxCell id="v2PRVIUzCw1DyUCOsPX0-73" value="ViewRecipe.css" style="ellipse;whiteSpace=wrap;html=1;aspect=fixed;strokeColor=#A724FF;" vertex="1" parent="1">
          <mxGeometry x="399" y="670.19" width="100" height="100" as="geometry" />
        </mxCell>
        <mxCell id="v2PRVIUzCw1DyUCOsPX0-74" style="edgeStyle=orthogonalEdgeStyle;rounded=0;orthogonalLoop=1;jettySize=auto;html=1;entryX=0;entryY=0.5;entryDx=0;entryDy=0;entryPerimeter=0;" edge="1" parent="1" source="v2PRVIUzCw1DyUCOsPX0-73" target="v2PRVIUzCw1DyUCOsPX0-49">
          <mxGeometry relative="1" as="geometry">
            <mxPoint x="517" y="1000.19" as="targetPoint" />
          </mxGeometry>
        </mxCell>
        <mxCell id="v2PRVIUzCw1DyUCOsPX0-76" value="" style="rounded=1;whiteSpace=wrap;html=1;fillColor=none;glass=0;shadow=0;strokeColor=#FF9B06;" vertex="1" parent="1">
          <mxGeometry x="130" y="644.45" width="800" height="399.62" as="geometry" />
        </mxCell>
        <mxCell id="v2PRVIUzCw1DyUCOsPX0-77" value="&lt;font style=&quot;font-size: 32px;&quot;&gt;RecipeBox&lt;/font&gt;" style="text;html=1;align=center;verticalAlign=middle;whiteSpace=wrap;rounded=0;" vertex="1" parent="1">
          <mxGeometry x="500" y="599" width="60" height="30" as="geometry" />
        </mxCell>
      </root>
    </mxGraphModel>
  </diagram>
</mxfile>
